<svg id="svg" version="1.1" xmlns="http://www.w3.org/2000/svg" xmlns:xlink="http://www.w3.org/1999/xlink" width="400" height="335.29411764705884" viewBox="0, 0, 400,335.29411764705884"><g id="svgg"><path id="path0" d="M215.268 29.540 C 213.562 30.373,211.825 32.329,211.423 33.870 C 211.031 35.376,210.698 37.284,209.222 46.477 C 208.570 50.537,207.878 54.841,207.685 56.040 C 207.491 57.240,207.192 59.090,207.022 60.151 C 206.851 61.212,206.562 62.949,206.380 64.010 C 206.197 65.071,205.662 68.356,205.190 71.309 C 204.719 74.262,204.104 78.037,203.823 79.698 C 203.543 81.359,203.175 83.624,203.004 84.732 C 202.151 90.270,202.021 90.778,201.302 91.368 C 199.575 92.784,199.328 91.745,199.333 83.086 C 199.341 67.903,198.701 49.671,198.092 47.729 C 195.341 38.952,183.987 40.417,183.078 49.667 C 182.872 51.768,182.024 73.665,181.694 85.403 C 181.606 88.540,181.475 92.565,181.404 94.347 L 181.275 97.587 184.010 97.795 C 188.896 98.165,196.183 98.953,201.510 99.687 C 202.802 99.864,207.483 100.463,211.913 101.016 C 222.934 102.393,222.870 102.383,223.904 102.904 C 225.652 103.787,226.312 106.166,225.332 108.060 C 224.239 110.175,222.726 110.447,214.299 110.045 C 204.723 109.587,202.823 110.046,202.932 112.786 C 203.006 114.634,201.526 113.276,226.120 134.060 C 229.870 137.230,230.528 138.042,230.761 139.794 C 231.259 143.528,227.183 144.262,223.101 141.174 C 222.115 140.428,218.245 137.498,214.501 134.662 C 208.282 129.952,206.483 128.897,207.361 130.473 C 207.674 131.037,207.959 131.364,211.218 134.899 C 212.763 136.575,217.402 141.704,218.749 143.226 C 219.049 143.566,221.107 145.858,223.322 148.320 L 227.349 152.797 227.349 154.616 C 227.349 156.721,226.244 158.054,224.500 158.054 C 222.477 158.054,221.890 157.616,217.282 152.670 C 200.637 134.805,197.428 132.479,205.973 144.474 C 214.839 156.918,215.357 157.696,215.582 158.895 C 216.102 161.667,213.971 163.532,211.151 162.772 C 209.895 162.434,209.113 161.557,203.188 153.850 C 202.450 152.890,200.871 150.838,199.680 149.291 C 198.489 147.743,196.632 145.319,195.552 143.905 C 194.473 142.491,193.346 141.240,193.048 141.126 C 192.266 140.826,191.819 141.407,192.254 142.158 C 193.114 143.647,198.422 154.997,198.875 156.317 C 199.329 157.642,199.322 157.847,198.789 158.666 C 196.936 161.513,194.592 160.742,192.084 156.462 C 190.675 154.058,182.868 142.059,180.514 138.680 C 179.327 136.976,176.846 133.382,175.000 130.693 C 173.154 128.004,170.738 124.552,169.631 123.021 C 168.523 121.489,166.334 118.459,164.765 116.286 C 159.529 109.035,150.340 96.827,149.185 95.589 C 144.205 90.248,135.073 93.538,135.078 100.671 C 135.079 103.437,135.194 103.701,139.599 111.074 C 140.646 112.827,142.791 116.451,144.365 119.128 C 145.939 121.804,149.417 127.693,152.094 132.215 C 154.770 136.737,159.189 144.211,161.914 148.826 C 173.374 168.236,179.462 174.463,190.815 178.386 C 199.247 181.299,214.332 180.966,222.148 177.694 C 229.374 174.669,234.370 169.588,238.533 161.031 C 239.488 159.069,240.268 157.364,240.268 157.241 C 240.268 157.118,240.777 155.627,241.398 153.928 C 242.019 152.229,242.763 150.008,243.052 148.993 C 243.602 147.058,243.664 146.836,247.150 134.228 C 249.340 126.312,249.841 124.516,250.383 122.651 C 250.544 122.097,251.212 119.681,251.868 117.282 C 252.523 114.883,253.413 111.938,253.847 110.738 C 254.946 107.692,258.935 96.824,259.696 94.799 C 265.051 80.552,265.496 79.068,265.011 77.071 C 264.243 73.908,262.027 72.151,258.804 72.149 C 254.581 72.146,254.765 71.879,243.112 94.966 C 240.170 100.793,239.211 101.786,238.253 99.995 C 237.806 99.160,237.957 98.374,240.416 88.758 C 241.455 84.698,242.439 80.772,242.603 80.034 C 242.767 79.295,243.305 77.181,243.798 75.336 C 244.291 73.490,244.777 71.602,244.877 71.141 C 244.978 70.680,245.963 66.753,247.066 62.416 C 249.765 51.810,249.706 52.060,249.896 50.268 C 250.581 43.788,243.110 39.413,237.637 43.088 C 235.324 44.642,234.402 46.737,231.718 56.544 C 231.074 58.894,227.259 72.102,226.871 73.322 C 226.336 75.005,222.909 87.016,222.680 88.012 C 222.352 89.440,221.280 90.366,220.462 89.929 C 219.699 89.520,219.600 88.126,220.127 85.207 C 220.422 83.575,221.558 75.465,222.497 68.289 C 222.691 66.812,222.985 64.698,223.152 63.591 C 223.319 62.483,223.615 60.369,223.811 58.893 C 224.007 57.416,224.481 54.018,224.864 51.342 C 227.252 34.674,227.252 34.645,224.785 31.497 C 222.812 28.980,218.315 28.055,215.268 29.540 M263.982 206.935 C 263.859 207.058,263.758 208.331,263.758 209.764 C 263.758 212.888,264.027 213.253,266.556 213.569 C 269.965 213.995,269.774 211.957,269.534 245.332 L 269.463 255.261 267.107 255.706 C 264.365 256.223,264.345 256.257,264.497 260.071 L 264.597 262.584 274.916 262.673 L 285.235 262.761 285.235 259.558 C 285.235 257.280,285.114 256.322,284.815 256.241 C 284.585 256.179,283.490 255.912,282.383 255.648 L 280.369 255.168 280.283 230.940 L 280.197 206.711 272.201 206.711 C 267.804 206.711,264.105 206.812,263.982 206.935 M279.866 231.192 L 279.866 255.338 280.956 255.841 C 281.556 256.118,282.576 256.389,283.221 256.444 L 284.396 256.544 284.493 259.480 L 284.590 262.416 274.832 262.416 L 265.075 262.416 265.171 259.480 L 265.268 256.544 266.443 256.449 C 267.089 256.398,267.919 256.223,268.289 256.060 C 268.658 255.898,269.224 255.681,269.547 255.578 C 270.098 255.402,270.134 254.114,270.134 234.783 C 270.134 212.147,270.286 213.640,267.953 213.270 C 267.215 213.153,266.044 212.889,265.352 212.683 L 264.094 212.309 264.094 209.678 L 264.094 207.047 271.980 207.047 L 279.866 207.047 279.866 231.192 M104.866 210.148 C 104.128 210.330,103.221 210.598,102.852 210.743 C 102.483 210.888,101.653 211.203,101.007 211.443 C 98.040 212.546,94.147 215.886,92.992 218.318 C 92.737 218.855,92.359 219.658,92.153 220.101 C 91.638 221.210,91.671 227.523,92.198 228.640 C 92.429 229.130,92.806 229.945,93.036 230.453 C 94.719 234.169,100.117 237.423,110.195 240.797 C 119.098 243.778,121.792 247.200,119.061 252.059 C 115.915 257.658,100.810 255.832,100.644 249.832 C 100.623 249.094,100.431 247.735,100.217 246.812 L 99.827 245.134 95.803 245.134 L 91.779 245.134 91.686 250.568 L 91.594 256.002 93.541 257.622 C 95.578 259.317,99.843 261.606,101.953 262.137 C 112.693 264.836,121.794 263.327,127.197 257.951 C 131.896 253.277,131.665 244.145,126.722 239.125 C 125.343 237.725,121.268 234.899,120.629 234.899 C 120.551 234.899,119.691 234.538,118.717 234.097 C 117.743 233.655,115.210 232.732,113.087 232.046 C 104.839 229.379,102.349 227.568,102.349 224.236 C 102.349 218.367,109.956 216.073,118.960 219.225 C 120.416 219.735,120.394 219.686,121.544 225.000 L 121.980 227.013 125.839 227.013 L 129.698 227.013 129.794 222.148 C 129.847 219.471,129.815 216.980,129.722 216.611 C 129.428 215.436,123.411 211.811,120.580 211.103 C 119.873 210.927,118.389 210.551,117.282 210.269 C 114.982 209.682,107.063 209.605,104.866 210.148 M115.325 210.502 C 116.833 210.725,118.180 211.021,118.318 211.159 C 118.455 211.297,119.147 211.409,119.855 211.409 C 120.562 211.409,121.141 211.560,121.141 211.745 C 121.141 211.930,121.346 212.081,121.597 212.081 C 122.187 212.081,126.231 214.190,127.891 215.364 L 129.180 216.275 129.187 221.404 L 129.195 226.534 125.791 226.438 L 122.388 226.342 121.947 224.664 C 121.705 223.742,121.499 222.578,121.491 222.080 C 121.457 219.999,120.768 219.329,117.450 218.149 C 114.287 217.025,105.034 217.538,105.034 218.838 C 105.034 218.997,104.855 219.128,104.636 219.128 C 104.097 219.128,102.685 220.486,102.685 221.004 C 102.685 221.233,102.549 221.471,102.383 221.532 C 102.078 221.645,101.880 223.463,101.967 225.359 C 102.028 226.711,103.866 228.847,105.755 229.761 C 108.475 231.079,110.231 231.795,111.322 232.031 C 111.919 232.161,112.495 232.406,112.600 232.576 C 112.705 232.747,113.226 232.886,113.758 232.886 C 114.290 232.886,114.819 233.037,114.933 233.221 C 115.047 233.406,115.435 233.557,115.796 233.557 C 116.157 233.557,116.714 233.688,117.035 233.848 C 117.355 234.008,118.924 234.777,120.521 235.558 C 125.454 237.969,129.195 241.582,129.195 243.935 C 129.195 244.296,129.346 244.685,129.530 244.799 C 130.423 245.350,129.914 252.524,128.836 254.580 C 125.255 261.411,113.657 264.927,104.171 262.057 C 103.604 261.885,102.820 261.745,102.429 261.745 C 102.038 261.745,101.624 261.594,101.510 261.409 C 101.396 261.225,101.045 261.074,100.731 261.074 C 99.844 261.074,95.579 258.704,93.843 257.246 L 92.282 255.935 92.282 250.607 L 92.282 245.279 95.889 245.375 C 99.461 245.469,99.497 245.478,99.584 246.309 C 99.632 246.770,99.925 248.472,100.237 250.091 L 100.802 253.035 102.498 253.851 C 109.166 257.061,117.544 256.258,119.645 252.209 C 121.635 248.373,118.472 241.946,114.594 241.946 C 114.350 241.946,114.100 241.833,114.038 241.695 C 113.977 241.556,112.114 240.861,109.899 240.149 C 107.685 239.437,105.610 238.720,105.290 238.555 C 104.969 238.390,104.479 238.255,104.199 238.255 C 103.920 238.255,103.691 238.104,103.691 237.919 C 103.691 237.735,103.472 237.584,103.205 237.584 C 102.937 237.584,101.918 237.123,100.940 236.559 C 99.961 235.995,98.897 235.449,98.574 235.345 C 98.251 235.241,97.987 235.023,97.987 234.860 C 97.987 234.697,97.792 234.564,97.553 234.564 C 96.576 234.564,92.953 230.112,92.953 228.911 C 92.953 228.535,92.802 228.134,92.617 228.020 C 92.429 227.903,92.282 226.289,92.282 224.329 C 92.282 222.368,92.429 220.754,92.617 220.638 C 92.802 220.524,92.953 220.062,92.953 219.611 C 92.953 219.161,93.104 218.792,93.289 218.792 C 93.473 218.792,93.624 218.563,93.624 218.283 C 93.624 217.762,96.944 214.262,98.154 213.508 C 99.685 212.554,102.179 211.409,102.728 211.409 C 103.051 211.409,103.409 211.258,103.523 211.074 C 103.638 210.889,104.288 210.728,104.969 210.715 C 105.651 210.702,106.510 210.561,106.879 210.403 C 107.857 209.983,112.163 210.033,115.325 210.502 M65.508 213.674 L 65.604 216.946 67.282 217.177 C 68.205 217.304,69.413 217.541,69.966 217.705 L 70.973 218.001 71.076 232.407 C 71.212 251.563,70.909 252.935,66.151 254.716 C 62.421 256.111,57.383 253.515,57.383 250.199 C 57.383 249.775,57.217 248.953,57.014 248.372 L 56.646 247.315 51.668 247.315 C 46.097 247.315,45.986 247.368,46.646 249.670 C 46.830 250.310,46.980 251.328,46.980 251.932 C 46.980 252.535,47.115 253.291,47.281 253.612 C 47.447 253.932,47.846 254.834,48.169 255.616 C 48.917 257.430,52.090 260.468,54.226 261.416 C 56.870 262.590,57.154 262.694,58.389 262.937 C 60.670 263.385,67.253 263.479,68.624 263.082 C 76.718 260.742,81.544 255.313,81.544 248.546 C 81.544 246.297,81.240 246.730,80.843 249.545 C 80.465 252.220,79.963 253.838,79.123 255.085 C 78.793 255.575,78.523 256.089,78.523 256.226 C 78.523 256.643,74.836 260.021,74.140 260.242 C 73.782 260.355,73.490 260.589,73.490 260.761 C 73.490 260.933,73.218 261.074,72.886 261.074 C 72.554 261.074,72.138 261.199,71.963 261.351 C 70.141 262.936,61.800 263.327,57.215 262.043 C 53.255 260.934,49.159 257.518,48.308 254.614 C 48.050 253.737,47.722 253.020,47.578 253.020 C 47.433 253.020,47.315 251.888,47.315 250.503 L 47.315 247.987 51.846 247.987 L 56.376 247.987 56.376 248.830 C 56.376 249.294,56.505 249.936,56.662 250.256 C 56.819 250.577,57.235 251.431,57.585 252.155 C 59.158 255.407,64.036 256.750,67.310 254.832 C 69.066 253.802,70.805 251.811,70.805 250.830 C 70.805 250.447,70.954 249.986,71.135 249.805 C 71.574 249.366,71.621 217.795,71.183 217.357 C 71.007 217.182,70.133 216.968,69.241 216.883 C 65.943 216.567,65.772 216.394,65.772 213.382 L 65.772 210.738 76.174 210.738 L 86.577 210.738 86.577 213.575 L 86.577 216.413 85.319 216.616 C 82.656 217.045,81.758 217.309,81.628 217.699 C 81.529 217.997,81.920 217.974,83.112 217.613 C 84.003 217.342,85.117 217.120,85.587 217.118 C 86.998 217.112,87.248 216.546,87.248 213.356 L 87.248 210.403 76.330 210.403 L 65.412 210.403 65.508 213.674 M134.794 210.619 C 134.387 211.027,134.535 216.280,134.966 216.711 C 135.188 216.933,135.754 217.116,136.225 217.119 C 136.695 217.122,137.760 217.327,138.591 217.576 L 140.101 218.027 140.101 236.600 L 140.101 255.174 138.926 255.447 C 138.280 255.597,137.072 255.832,136.242 255.968 L 134.732 256.216 134.732 259.400 L 134.732 262.584 145.638 262.584 L 156.544 262.584 156.642 259.763 C 156.700 258.101,156.595 256.797,156.387 256.589 C 155.964 256.165,150.671 255.034,150.671 255.366 C 150.671 255.722,153.119 256.376,154.449 256.376 C 155.904 256.376,156.040 256.681,156.040 259.927 L 156.040 262.416 145.638 262.416 L 135.235 262.416 135.240 259.815 C 135.246 256.630,135.312 256.528,137.490 256.276 C 140.937 255.879,140.604 258.002,140.604 236.411 L 140.604 217.476 139.346 217.172 C 138.654 217.005,137.483 216.735,136.745 216.572 L 135.403 216.275 135.305 213.496 L 135.207 210.717 148.896 210.851 C 161.962 210.978,164.422 211.105,165.940 211.726 C 166.309 211.877,167.290 212.278,168.121 212.618 C 168.951 212.958,169.706 213.333,169.799 213.451 C 169.891 213.568,170.440 213.907,171.019 214.204 C 172.228 214.823,174.459 217.246,175.127 218.664 C 175.377 219.196,175.696 219.862,175.835 220.145 C 178.387 225.317,175.996 232.629,170.752 235.692 C 169.007 236.711,168.493 237.506,169.385 237.804 C 170.667 238.232,171.812 238.764,171.812 238.932 C 171.812 239.029,172.318 239.381,172.936 239.714 C 175.361 241.020,176.839 244.473,177.052 249.329 C 177.280 254.536,178.082 256.376,180.122 256.376 C 181.247 256.376,181.544 257.089,181.544 259.799 L 181.544 262.416 179.138 262.416 C 170.250 262.416,168.107 260.390,167.474 251.385 C 167.075 245.704,165.890 242.617,164.108 242.617 C 163.916 242.617,163.758 242.466,163.758 242.282 C 163.758 242.097,163.465 241.946,163.107 241.946 C 162.749 241.946,162.362 241.795,162.248 241.611 C 161.747 240.799,150.667 241.202,150.710 242.030 C 150.739 242.598,150.787 242.640,150.902 242.198 C 151.039 241.674,151.563 241.611,155.774 241.611 C 164.781 241.611,166.586 243.217,167.083 251.678 C 167.606 260.581,170.037 262.956,178.356 262.691 L 181.711 262.584 181.711 259.410 L 181.711 256.236 180.542 255.996 C 178.540 255.587,177.852 254.414,177.852 251.407 C 177.852 244.178,174.046 237.584,169.872 237.584 C 169.443 237.584,169.459 237.474,169.966 236.913 C 170.300 236.544,170.765 236.242,170.998 236.242 C 171.870 236.242,175.100 232.865,176.048 230.961 C 177.160 228.730,177.603 223.394,176.844 221.372 C 174.793 215.903,170.834 212.375,165.209 211.004 C 163.430 210.570,135.200 210.213,134.794 210.619 M150.923 217.978 C 150.356 218.551,150.892 218.626,155.790 218.657 C 163.655 218.707,166.751 220.843,166.773 226.231 C 166.794 231.237,163.959 233.054,156.125 233.054 C 151.663 233.054,150.672 233.139,150.672 233.526 C 150.671 234.194,161.057 233.816,162.759 233.087 C 165.725 231.815,167.114 229.559,167.114 226.016 C 167.114 224.649,166.963 223.436,166.779 223.322 C 166.594 223.208,166.443 222.835,166.443 222.492 C 166.443 220.992,163.260 218.720,160.570 218.299 C 158.309 217.944,151.190 217.708,150.923 217.978 M200.839 223.158 C 198.487 223.446,195.841 224.313,194.579 225.207 C 194.089 225.555,193.536 225.839,193.350 225.839 C 192.637 225.839,188.926 230.347,187.916 232.441 C 184.958 238.575,184.896 247.979,187.776 253.887 C 191.966 262.482,204.158 266.098,214.094 261.693 C 218.981 259.526,219.200 259.242,217.999 256.606 C 217.563 255.649,217.104 254.540,216.980 254.141 C 216.503 252.620,215.961 252.543,213.347 253.629 C 205.439 256.912,198.813 255.081,197.294 249.193 C 197.099 248.437,196.864 247.557,196.771 247.236 C 196.613 246.692,197.366 246.647,208.116 246.565 L 219.631 246.477 219.737 242.282 C 219.946 234.064,218.113 229.572,212.919 225.570 C 210.618 223.797,204.914 222.658,200.839 223.158 M239.005 223.144 C 235.345 223.570,236.344 223.774,242.000 223.754 C 245.016 223.744,247.106 223.628,246.644 223.496 C 245.167 223.076,241.173 222.891,239.005 223.144 M312.248 223.157 C 309.068 223.639,306.314 225.047,304.590 227.074 C 303.272 228.624,303.020 228.483,303.020 226.194 C 303.020 224.533,302.618 223.391,302.204 223.876 C 302.033 224.075,302.839 228.454,303.093 228.708 C 303.225 228.840,304.196 228.159,305.251 227.194 C 311.179 221.777,320.131 222.544,323.684 228.775 C 324.420 230.066,324.705 230.117,325.572 229.111 C 329.408 224.658,331.157 223.780,336.205 223.775 C 345.660 223.765,348.270 228.787,348.306 247.052 C 348.324 256.484,348.158 255.974,351.342 256.360 L 352.852 256.544 352.949 259.480 L 353.046 262.416 343.469 262.416 L 333.893 262.416 333.893 259.927 C 333.893 256.802,334.056 256.376,335.255 256.376 C 336.297 256.376,337.942 255.752,338.334 255.208 C 338.723 254.668,338.631 238.598,338.226 236.387 C 337.130 230.401,330.442 228.725,326.540 233.459 L 325.503 234.717 325.503 245.031 L 325.503 255.346 326.258 255.758 C 326.674 255.985,327.617 256.255,328.356 256.357 L 329.698 256.544 329.795 259.480 L 329.892 262.416 320.805 262.416 L 311.719 262.416 311.816 259.485 L 311.913 256.553 313.087 256.359 C 313.733 256.252,314.602 255.980,315.017 255.755 L 315.772 255.346 315.772 245.499 C 315.772 233.813,315.622 233.222,312.169 231.292 C 311.275 230.793,307.511 230.729,307.215 231.208 C 307.101 231.393,306.736 231.544,306.403 231.544 C 306.071 231.544,305.096 232.162,304.237 232.919 L 302.675 234.294 302.764 244.719 L 302.852 255.144 303.913 255.736 C 304.497 256.062,305.478 256.377,306.094 256.436 L 307.215 256.544 307.312 259.480 L 307.409 262.416 297.832 262.416 L 288.255 262.416 288.255 259.799 C 288.255 256.940,288.536 256.376,289.959 256.376 C 290.453 256.376,291.405 256.147,292.073 255.868 L 293.289 255.360 293.289 243.289 L 293.289 231.217 292.073 230.709 C 291.405 230.430,290.277 230.201,289.568 230.201 C 287.854 230.201,287.503 229.492,287.642 226.316 C 287.702 224.945,287.638 223.824,287.500 223.825 C 286.755 223.827,287.247 230.188,288.003 230.333 C 288.419 230.413,289.627 230.667,290.688 230.897 L 292.617 231.315 292.617 243.282 L 292.617 255.250 290.414 255.709 C 287.723 256.271,287.525 256.577,287.654 259.987 L 287.752 262.584 297.915 262.673 L 308.078 262.762 307.982 259.521 L 307.886 256.281 305.705 255.728 L 303.523 255.175 303.523 244.667 L 303.523 234.159 304.789 233.097 C 308.562 229.930,313.779 231.220,314.947 235.608 C 315.497 237.674,315.663 254.854,315.136 255.179 C 314.971 255.281,314.028 255.571,313.039 255.824 L 311.242 256.283 311.146 259.517 L 311.050 262.752 320.625 262.752 L 330.201 262.752 330.201 259.553 C 330.201 257.286,330.079 256.318,329.782 256.227 C 329.551 256.157,328.645 255.903,327.768 255.661 L 326.174 255.223 326.174 244.842 L 326.174 234.461 327.482 233.254 C 330.534 230.437,335.332 230.922,337.108 234.228 C 337.685 235.301,337.740 236.258,337.746 245.274 L 337.752 255.145 335.839 255.676 C 333.234 256.400,333.177 256.491,333.291 259.763 L 333.389 262.584 343.540 262.673 L 353.691 262.762 353.691 259.558 C 353.691 257.287,353.569 256.318,353.272 256.227 C 353.041 256.157,351.909 255.904,350.755 255.665 L 348.658 255.231 348.657 245.820 C 348.657 233.379,348.001 230.099,344.807 226.564 C 340.215 221.481,329.270 222.238,325.944 227.868 C 325.087 229.318,324.581 229.332,323.862 227.925 C 322.141 224.554,316.990 222.439,312.248 223.157 M208.557 224.235 C 210.762 225.013,212.978 226.231,214.094 227.279 C 215.876 228.952,217.441 230.973,217.445 231.608 C 217.448 231.920,217.577 232.254,217.732 232.350 C 218.482 232.813,219.155 237.514,219.059 241.611 L 218.960 245.805 207.915 245.894 C 200.496 245.953,196.724 246.104,196.425 246.352 C 195.968 246.731,196.124 248.194,196.688 248.809 C 196.848 248.984,196.980 249.412,196.980 249.760 C 196.980 251.049,199.411 253.957,201.237 254.852 C 204.253 256.330,212.635 255.587,214.581 253.670 C 215.472 252.792,216.169 253.423,217.198 256.040 C 217.380 256.502,217.661 257.141,217.824 257.462 C 218.420 258.632,217.576 259.854,215.878 260.280 C 215.450 260.388,215.101 260.610,215.101 260.775 C 215.101 260.939,214.732 261.074,214.282 261.074 C 213.831 261.074,213.380 261.207,213.279 261.371 C 212.419 262.762,202.566 263.186,198.154 262.021 C 192.870 260.627,186.913 254.117,186.913 249.737 C 186.913 249.328,186.762 248.993,186.577 248.993 C 186.367 248.993,186.242 246.931,186.242 243.476 C 186.242 240.160,186.375 237.876,186.577 237.752 C 186.762 237.638,186.913 237.154,186.913 236.676 C 186.913 235.883,189.063 230.929,189.577 230.537 C 189.698 230.445,190.124 229.902,190.523 229.330 C 193.663 224.829,202.868 222.228,208.557 224.235 M233.254 224.557 C 232.256 224.940,230.519 225.753,229.394 226.364 L 227.349 227.474 227.255 231.858 L 227.162 236.242 231.175 236.242 L 235.187 236.242 235.556 234.480 C 236.164 231.571,237.056 231.021,241.074 231.080 C 245.785 231.148,247.444 232.833,247.470 237.572 L 247.483 240.101 242.450 240.327 C 230.237 240.877,225.167 244.283,225.168 251.939 C 225.169 262.087,237.327 267.220,245.934 260.706 C 248.100 259.066,248.045 259.059,248.761 261.074 L 249.356 262.752 255.563 262.752 L 261.769 262.752 261.673 259.480 L 261.577 256.208 260.067 256.040 L 258.557 255.872 258.347 244.631 C 258.172 235.253,258.045 233.167,257.580 232.047 C 257.274 231.309,256.935 230.440,256.828 230.117 C 256.721 229.794,256.500 229.530,256.337 229.530 C 256.174 229.530,256.040 229.317,256.040 229.055 C 256.040 227.808,249.528 223.604,248.049 223.896 C 247.734 223.959,248.376 224.365,249.497 224.813 C 252.341 225.950,255.705 228.500,255.705 229.519 C 255.705 229.710,255.819 229.866,255.958 229.866 C 257.129 229.866,257.722 234.753,257.860 245.538 C 258.001 256.475,257.987 256.376,259.349 256.376 C 260.794 256.376,261.074 256.930,261.074 259.799 L 261.074 262.416 255.415 262.416 L 249.756 262.416 249.207 260.979 C 248.905 260.188,248.658 259.367,248.658 259.153 C 248.658 258.283,247.972 258.462,246.433 259.733 C 245.541 260.471,244.619 261.074,244.385 261.074 C 244.151 261.074,243.960 261.207,243.960 261.370 C 243.960 262.121,237.789 263.056,235.235 262.693 C 232.307 262.277,230.514 261.525,229.008 260.085 C 226.555 257.736,225.839 255.852,225.839 251.747 C 225.839 248.856,226.736 246.293,228.188 245.033 C 229.426 243.959,232.239 242.282,232.803 242.282 C 233.144 242.282,233.566 242.146,233.742 241.981 C 234.245 241.505,236.663 241.231,242.450 240.993 L 247.819 240.772 247.916 237.784 C 248.086 232.599,244.541 229.247,240.050 230.344 C 239.524 230.472,238.641 230.664,238.087 230.770 C 236.595 231.055,235.235 232.135,235.235 233.035 C 235.235 233.460,235.141 234.281,235.025 234.857 L 234.815 235.906 231.166 235.906 L 227.517 235.906 227.517 231.904 L 227.517 227.902 228.440 227.435 C 228.947 227.179,229.664 226.803,230.034 226.599 C 231.355 225.871,233.744 224.911,234.812 224.680 C 236.011 224.421,236.634 223.815,235.674 223.843 C 235.340 223.853,234.251 224.174,233.254 224.557 M200.422 231.355 C 198.671 232.323,197.605 233.954,196.533 237.307 C 195.690 239.941,195.748 239.964,203.189 239.857 L 209.564 239.765 209.666 237.787 C 209.722 236.699,209.609 235.649,209.414 235.454 C 209.220 235.260,209.060 234.829,209.060 234.497 C 209.060 234.164,208.909 233.893,208.725 233.893 C 208.540 233.893,208.389 233.692,208.389 233.448 C 208.389 232.969,207.341 231.970,206.129 231.292 C 205.181 230.762,201.418 230.803,200.422 231.355 M205.412 231.682 C 207.688 232.635,208.928 234.522,209.291 237.584 L 209.489 239.262 203.598 239.262 C 196.327 239.262,196.594 239.345,197.149 237.244 C 198.407 232.474,201.819 230.177,205.412 231.682 M239.933 246.092 C 237.955 246.739,236.679 247.693,235.941 249.077 C 232.554 255.421,241.645 258.722,247.200 253.166 C 247.921 252.446,247.987 252.096,247.987 249.009 L 247.987 245.638 244.547 245.673 C 242.655 245.692,240.579 245.881,239.933 246.092 M247.120 246.512 C 248.064 246.874,247.861 251.600,246.852 252.773 C 244.406 255.618,239.186 256.367,237.006 254.187 C 234.541 251.722,236.547 246.938,240.206 246.552 C 242.361 246.325,246.569 246.301,247.120 246.512 " stroke="none" fill="#bd9fd9" fill-rule="evenodd"></path><path id="path1" d="M0.000 167.785 L 0.000 335.570 200.000 335.570 L 400.000 335.570 400.000 167.785 L 400.000 0.000 200.000 0.000 L 0.000 0.000 0.000 167.785 M222.321 29.568 C 223.724 30.228,225.282 31.810,226.082 33.389 C 227.043 35.288,226.935 36.886,224.864 51.342 C 224.481 54.018,224.007 57.416,223.811 58.893 C 223.615 60.369,223.319 62.483,223.152 63.591 C 222.985 64.698,222.691 66.812,222.497 68.289 C 221.558 75.465,220.422 83.575,220.127 85.207 C 219.600 88.126,219.699 89.520,220.462 89.929 C 221.280 90.366,222.352 89.440,222.680 88.012 C 222.909 87.016,226.336 75.005,226.871 73.322 C 227.259 72.102,231.074 58.894,231.718 56.544 C 234.402 46.737,235.324 44.642,237.637 43.088 C 243.110 39.413,250.581 43.788,249.896 50.268 C 249.706 52.060,249.765 51.810,247.066 62.416 C 245.963 66.753,244.978 70.680,244.877 71.141 C 244.777 71.602,244.291 73.490,243.798 75.336 C 243.305 77.181,242.767 79.295,242.603 80.034 C 242.439 80.772,241.455 84.698,240.416 88.758 C 237.957 98.374,237.806 99.160,238.253 99.995 C 239.211 101.786,240.170 100.793,243.112 94.966 C 254.765 71.879,254.581 72.146,258.804 72.149 C 262.027 72.151,264.243 73.908,265.011 77.071 C 265.496 79.068,265.051 80.552,259.696 94.799 C 258.935 96.824,254.946 107.692,253.847 110.738 C 253.413 111.938,252.523 114.883,251.868 117.282 C 251.212 119.681,250.544 122.097,250.383 122.651 C 249.841 124.516,249.340 126.312,247.150 134.228 C 243.664 146.836,243.602 147.058,243.052 148.993 C 242.763 150.008,242.019 152.229,241.398 153.928 C 240.777 155.627,240.268 157.118,240.268 157.241 C 240.268 157.364,239.488 159.069,238.533 161.031 C 232.159 174.134,223.636 179.563,208.221 180.341 C 187.111 181.406,177.146 174.625,161.914 148.826 C 159.189 144.211,154.770 136.737,152.094 132.215 C 149.417 127.693,145.939 121.804,144.365 119.128 C 142.791 116.451,140.646 112.827,139.599 111.074 C 135.194 103.701,135.079 103.437,135.078 100.671 C 135.073 93.538,144.205 90.248,149.185 95.589 C 150.340 96.827,159.529 109.035,164.765 116.286 C 166.334 118.459,168.523 121.489,169.631 123.021 C 170.738 124.552,173.154 128.004,175.000 130.693 C 176.846 133.382,179.327 136.976,180.514 138.680 C 182.868 142.059,190.675 154.058,192.084 156.462 C 194.592 160.742,196.936 161.513,198.789 158.666 C 199.322 157.847,199.329 157.642,198.875 156.317 C 198.422 154.997,193.114 143.647,192.254 142.158 C 191.819 141.407,192.266 140.826,193.048 141.126 C 193.346 141.240,194.473 142.491,195.552 143.905 C 196.632 145.319,198.489 147.743,199.680 149.291 C 200.871 150.838,202.450 152.890,203.188 153.850 C 209.113 161.557,209.895 162.434,211.151 162.772 C 213.971 163.532,216.102 161.667,215.582 158.895 C 215.357 157.696,214.839 156.918,205.973 144.474 C 197.428 132.479,200.637 134.805,217.282 152.670 C 221.890 157.616,222.477 158.054,224.500 158.054 C 226.244 158.054,227.349 156.721,227.349 154.616 L 227.349 152.797 223.322 148.320 C 221.107 145.858,219.049 143.566,218.749 143.226 C 217.402 141.704,212.763 136.575,211.218 134.899 C 207.959 131.364,207.674 131.037,207.361 130.473 C 206.483 128.897,208.282 129.952,214.501 134.662 C 218.245 137.498,222.115 140.428,223.101 141.174 C 227.183 144.262,231.259 143.528,230.761 139.794 C 230.528 138.042,229.870 137.230,226.120 134.060 C 201.526 113.276,203.006 114.634,202.932 112.786 C 202.823 110.046,204.723 109.587,214.299 110.045 C 222.726 110.447,224.239 110.175,225.332 108.060 C 226.312 106.166,225.652 103.787,223.904 102.904 C 222.870 102.383,222.934 102.393,211.913 101.016 C 207.483 100.463,202.802 99.864,201.510 99.687 C 196.183 98.953,188.896 98.165,184.010 97.795 L 181.275 97.587 181.404 94.347 C 181.475 92.565,181.606 88.540,181.694 85.403 C 182.024 73.665,182.872 51.768,183.078 49.667 C 183.987 40.417,195.341 38.952,198.092 47.729 C 198.701 49.671,199.341 67.903,199.333 83.086 C 199.328 91.745,199.575 92.784,201.302 91.368 C 202.021 90.778,202.151 90.270,203.004 84.732 C 203.175 83.624,203.543 81.359,203.823 79.698 C 204.104 78.037,204.719 74.262,205.190 71.309 C 205.662 68.356,206.197 65.071,206.380 64.010 C 206.562 62.949,206.851 61.212,207.022 60.151 C 207.192 59.090,207.491 57.240,207.685 56.040 C 207.878 54.841,208.570 50.537,209.222 46.477 C 211.385 33.000,211.363 33.095,212.831 31.434 C 215.102 28.865,219.137 28.071,222.321 29.568 M280.283 230.940 L 280.369 255.168 282.383 255.648 C 283.490 255.912,284.585 256.179,284.815 256.241 C 285.114 256.322,285.235 257.280,285.235 259.558 L 285.235 262.761 274.916 262.673 L 264.597 262.584 264.497 260.071 C 264.345 256.257,264.365 256.223,267.107 255.706 L 269.463 255.261 269.534 245.332 C 269.774 211.957,269.965 213.995,266.556 213.569 C 264.027 213.253,263.758 212.888,263.758 209.764 C 263.758 206.431,262.983 206.711,272.201 206.711 L 280.197 206.711 280.283 230.940 M117.282 210.269 C 118.389 210.551,119.873 210.927,120.580 211.103 C 123.411 211.811,129.428 215.436,129.722 216.611 C 129.815 216.980,129.847 219.471,129.794 222.148 L 129.698 227.013 125.839 227.013 L 121.980 227.013 121.544 225.000 C 120.394 219.686,120.416 219.735,118.960 219.225 C 109.956 216.073,102.349 218.367,102.349 224.236 C 102.349 227.568,104.839 229.379,113.087 232.046 C 115.210 232.732,117.743 233.655,118.717 234.097 C 119.691 234.538,120.551 234.899,120.629 234.899 C 121.268 234.899,125.343 237.725,126.722 239.125 C 131.665 244.145,131.896 253.277,127.197 257.951 C 123.529 261.600,118.297 263.423,111.488 263.423 C 107.939 263.423,106.066 263.170,101.953 262.137 C 99.843 261.606,95.578 259.317,93.541 257.622 L 91.594 256.002 91.686 250.568 L 91.779 245.134 95.803 245.134 L 99.827 245.134 100.217 246.812 C 100.431 247.735,100.623 249.094,100.644 249.832 C 100.810 255.832,115.915 257.658,119.061 252.059 C 121.792 247.200,119.098 243.778,110.195 240.797 C 100.117 237.423,94.719 234.169,93.036 230.453 C 92.806 229.945,92.429 229.130,92.198 228.640 C 91.671 227.523,91.638 221.210,92.153 220.101 C 92.359 219.658,92.737 218.855,92.992 218.318 C 94.147 215.886,98.040 212.546,101.007 211.443 C 101.653 211.203,102.483 210.888,102.852 210.743 C 105.615 209.659,113.831 209.389,117.282 210.269 M87.248 213.356 C 87.248 216.545,86.999 217.111,85.587 217.119 C 85.117 217.122,84.052 217.327,83.221 217.576 L 81.711 218.027 81.544 234.601 C 81.395 249.316,81.310 251.349,80.788 252.732 C 78.698 258.264,75.307 261.150,68.624 263.082 C 67.253 263.479,60.670 263.385,58.389 262.937 C 57.154 262.694,56.870 262.590,54.226 261.416 C 52.090 260.468,48.917 257.430,48.169 255.616 C 47.846 254.834,47.447 253.932,47.281 253.612 C 47.115 253.291,46.980 252.535,46.980 251.932 C 46.980 251.328,46.830 250.310,46.646 249.670 C 45.986 247.368,46.097 247.315,51.668 247.315 L 56.646 247.315 57.014 248.372 C 57.217 248.953,57.383 249.775,57.383 250.199 C 57.383 253.515,62.421 256.111,66.151 254.716 C 70.909 252.935,71.212 251.563,71.076 232.407 L 70.973 218.001 69.966 217.705 C 69.413 217.541,68.205 217.304,67.282 217.177 L 65.604 216.946 65.508 213.674 L 65.412 210.403 76.330 210.403 L 87.248 210.403 87.248 213.356 M165.209 211.004 C 170.834 212.375,174.793 215.903,176.844 221.372 C 177.603 223.394,177.160 228.730,176.048 230.961 C 175.100 232.865,171.870 236.242,170.998 236.242 C 170.765 236.242,170.300 236.544,169.966 236.913 C 169.459 237.474,169.443 237.584,169.872 237.584 C 174.046 237.584,177.852 244.178,177.852 251.407 C 177.852 254.414,178.540 255.587,180.542 255.996 L 181.711 256.236 181.711 259.410 L 181.711 262.584 178.356 262.691 C 170.037 262.956,167.606 260.581,167.083 251.678 C 166.586 243.215,164.782 241.611,155.765 241.611 L 151.037 241.611 150.839 242.701 C 150.730 243.301,150.686 246.356,150.740 249.491 L 150.839 255.189 153.431 255.707 C 156.753 256.370,156.760 256.379,156.642 259.763 L 156.544 262.584 145.638 262.584 L 134.732 262.584 134.732 259.400 L 134.732 256.216 136.242 255.968 C 137.072 255.832,138.280 255.597,138.926 255.447 L 140.101 255.174 140.101 236.600 L 140.101 218.027 138.591 217.576 C 137.760 217.327,136.695 217.122,136.225 217.119 C 135.754 217.116,135.188 216.933,134.966 216.711 C 134.535 216.280,134.387 211.027,134.794 210.619 C 135.200 210.213,163.430 210.570,165.209 211.004 M150.839 218.840 C 150.739 219.100,150.698 222.405,150.748 226.184 L 150.839 233.054 156.208 233.054 C 163.124 233.054,164.647 232.433,166.110 229.020 C 167.695 225.323,166.045 220.968,162.464 219.395 C 160.417 218.496,151.140 218.053,150.839 218.840 M207.886 223.557 C 209.444 223.892,212.142 224.971,212.919 225.570 C 218.113 229.572,219.946 234.064,219.737 242.282 L 219.631 246.477 208.116 246.565 C 197.366 246.647,196.613 246.692,196.771 247.236 C 196.864 247.557,197.099 248.437,197.294 249.193 C 198.813 255.081,205.439 256.912,213.347 253.629 C 215.961 252.543,216.503 252.620,216.980 254.141 C 217.104 254.540,217.563 255.649,217.999 256.606 C 219.200 259.242,218.981 259.526,214.094 261.693 C 204.158 266.098,191.966 262.482,187.776 253.887 C 184.896 247.979,184.958 238.575,187.916 232.441 C 188.926 230.347,192.637 225.839,193.350 225.839 C 193.536 225.839,194.089 225.555,194.579 225.207 C 197.447 223.174,202.937 222.494,207.886 223.557 M247.379 223.659 C 250.886 224.454,256.040 227.665,256.040 229.055 C 256.040 229.317,256.174 229.530,256.337 229.530 C 256.500 229.530,256.721 229.794,256.828 230.117 C 256.935 230.440,257.274 231.309,257.580 232.047 C 258.045 233.167,258.172 235.253,258.347 244.631 L 258.557 255.872 260.067 256.040 L 261.577 256.208 261.673 259.480 L 261.769 262.752 255.563 262.752 L 249.356 262.752 248.761 261.074 C 248.045 259.059,248.100 259.066,245.934 260.706 C 239.192 265.808,228.547 263.512,225.863 256.376 C 223.378 249.774,226.528 243.691,233.557 241.515 C 236.313 240.662,236.974 240.573,242.450 240.327 L 247.483 240.101 247.470 237.572 C 247.444 232.833,245.785 231.148,241.074 231.080 C 237.056 231.021,236.164 231.571,235.556 234.480 L 235.187 236.242 231.175 236.242 L 227.162 236.242 227.255 231.829 L 227.349 227.417 230.201 225.972 C 235.971 223.050,241.442 222.313,247.379 223.659 M318.837 223.823 C 320.880 224.585,323.069 226.371,323.862 227.925 C 324.581 229.332,325.087 229.318,325.944 227.868 C 329.270 222.238,340.215 221.481,344.807 226.564 C 348.001 230.099,348.657 233.379,348.657 245.820 L 348.658 255.231 350.755 255.665 C 351.909 255.904,353.041 256.157,353.272 256.227 C 353.569 256.318,353.691 257.287,353.691 259.558 L 353.691 262.762 343.540 262.673 L 333.389 262.584 333.291 259.763 C 333.177 256.491,333.234 256.400,335.839 255.676 L 337.752 255.145 337.746 245.274 C 337.740 236.258,337.685 235.301,337.108 234.228 C 335.332 230.922,330.534 230.437,327.482 233.254 L 326.174 234.461 326.174 244.842 L 326.174 255.223 327.768 255.661 C 328.645 255.903,329.551 256.157,329.782 256.227 C 330.079 256.318,330.201 257.286,330.201 259.553 L 330.201 262.752 320.625 262.752 L 311.050 262.752 311.146 259.517 L 311.242 256.283 313.039 255.824 C 314.028 255.571,314.971 255.281,315.136 255.179 C 315.663 254.854,315.497 237.674,314.947 235.608 C 313.779 231.220,308.562 229.930,304.789 233.097 L 303.523 234.159 303.523 244.667 L 303.523 255.175 305.705 255.728 L 307.886 256.281 307.982 259.521 L 308.078 262.762 297.915 262.673 L 287.752 262.584 287.654 259.987 C 287.525 256.577,287.723 256.271,290.414 255.709 L 292.617 255.250 292.617 243.282 L 292.617 231.315 290.688 230.897 C 289.627 230.667,288.419 230.413,288.003 230.333 C 287.284 230.195,287.248 230.040,287.248 227.001 L 287.248 223.813 295.050 223.903 L 302.852 223.993 302.952 226.091 C 303.067 228.493,303.276 228.618,304.590 227.074 C 307.704 223.413,313.927 221.993,318.837 223.823 M200.671 231.996 C 198.988 232.853,197.866 234.525,197.149 237.244 C 196.594 239.345,196.327 239.262,203.598 239.262 L 209.489 239.262 209.291 237.584 C 208.680 232.423,204.787 229.900,200.671 231.996 M240.206 246.552 C 236.547 246.938,234.541 251.722,237.006 254.187 C 239.186 256.367,244.406 255.618,246.852 252.773 C 247.861 251.600,248.064 246.874,247.120 246.512 C 246.569 246.301,242.361 246.325,240.206 246.552 " stroke="none" fill="#000000" fill-rule="evenodd"></path><path id="path2" d="M264.094 209.678 L 264.094 212.309 265.352 212.683 C 266.044 212.889,267.215 213.153,267.953 213.270 C 270.286 213.640,270.134 212.147,270.134 234.783 C 270.134 254.114,270.098 255.402,269.547 255.578 C 269.224 255.681,268.658 255.898,268.289 256.060 C 267.919 256.223,267.089 256.398,266.443 256.449 L 265.268 256.544 265.171 259.480 L 265.075 262.416 274.832 262.416 L 284.590 262.416 284.493 259.480 L 284.396 256.544 283.221 256.444 C 282.576 256.389,281.556 256.118,280.956 255.841 L 279.866 255.338 279.866 231.192 L 279.866 207.047 271.980 207.047 L 264.094 207.047 264.094 209.678 M106.879 210.403 C 106.510 210.561,105.651 210.702,104.969 210.715 C 104.288 210.728,103.638 210.889,103.523 211.074 C 103.409 211.258,103.051 211.409,102.728 211.409 C 102.179 211.409,99.685 212.554,98.154 213.508 C 96.944 214.262,93.624 217.762,93.624 218.283 C 93.624 218.563,93.473 218.792,93.289 218.792 C 93.104 218.792,92.953 219.161,92.953 219.611 C 92.953 220.062,92.802 220.524,92.617 220.638 C 92.429 220.754,92.282 222.368,92.282 224.329 C 92.282 226.289,92.429 227.903,92.617 228.020 C 92.802 228.134,92.953 228.535,92.953 228.911 C 92.953 230.112,96.576 234.564,97.553 234.564 C 97.792 234.564,97.987 234.697,97.987 234.860 C 97.987 235.023,98.251 235.241,98.574 235.345 C 98.897 235.449,99.961 235.995,100.940 236.559 C 101.918 237.123,102.937 237.584,103.205 237.584 C 103.472 237.584,103.691 237.735,103.691 237.919 C 103.691 238.104,103.920 238.255,104.199 238.255 C 104.479 238.255,104.969 238.390,105.290 238.555 C 105.610 238.720,107.685 239.437,109.899 240.149 C 112.114 240.861,113.977 241.556,114.038 241.695 C 114.100 241.833,114.350 241.946,114.594 241.946 C 118.472 241.946,121.635 248.373,119.645 252.209 C 117.544 256.258,109.166 257.061,102.498 253.851 L 100.802 253.035 100.237 250.091 C 99.925 248.472,99.632 246.770,99.584 246.309 C 99.497 245.478,99.461 245.469,95.889 245.375 L 92.282 245.279 92.282 250.607 L 92.282 255.935 93.843 257.246 C 95.579 258.704,99.844 261.074,100.731 261.074 C 101.045 261.074,101.396 261.225,101.510 261.409 C 101.624 261.594,102.038 261.745,102.429 261.745 C 102.820 261.745,103.604 261.885,104.171 262.057 C 113.657 264.927,125.255 261.411,128.836 254.580 C 129.914 252.524,130.423 245.350,129.530 244.799 C 129.346 244.685,129.195 244.296,129.195 243.935 C 129.195 241.582,125.454 237.969,120.521 235.558 C 118.924 234.777,117.355 234.008,117.035 233.848 C 116.714 233.688,116.157 233.557,115.796 233.557 C 115.435 233.557,115.047 233.406,114.933 233.221 C 114.819 233.037,114.290 232.886,113.758 232.886 C 113.226 232.886,112.705 232.747,112.600 232.576 C 112.495 232.406,111.919 232.161,111.322 232.031 C 110.231 231.795,108.475 231.079,105.755 229.761 C 103.866 228.847,102.028 226.711,101.967 225.359 C 101.880 223.463,102.078 221.645,102.383 221.532 C 102.549 221.471,102.685 221.233,102.685 221.004 C 102.685 220.486,104.097 219.128,104.636 219.128 C 104.855 219.128,105.034 218.997,105.034 218.838 C 105.034 218.016,108.837 217.361,112.543 217.546 C 118.860 217.861,121.444 219.170,121.491 222.080 C 121.499 222.578,121.705 223.742,121.947 224.664 L 122.388 226.342 125.791 226.438 L 129.195 226.534 129.187 221.404 L 129.180 216.275 127.891 215.364 C 126.231 214.190,122.187 212.081,121.597 212.081 C 121.346 212.081,121.141 211.930,121.141 211.745 C 121.141 211.560,120.562 211.409,119.855 211.409 C 119.147 211.409,118.455 211.297,118.318 211.159 C 117.545 210.386,108.335 209.777,106.879 210.403 M65.772 213.382 C 65.772 216.394,65.943 216.567,69.241 216.883 C 70.133 216.968,71.007 217.182,71.183 217.357 C 71.621 217.795,71.574 249.366,71.135 249.805 C 70.954 249.986,70.805 250.447,70.805 250.830 C 70.805 251.811,69.066 253.802,67.310 254.832 C 64.036 256.750,59.158 255.407,57.585 252.155 C 57.235 251.431,56.819 250.577,56.662 250.256 C 56.505 249.936,56.376 249.294,56.376 248.830 L 56.376 247.987 51.846 247.987 L 47.315 247.987 47.315 250.503 C 47.315 251.888,47.433 253.020,47.578 253.020 C 47.722 253.020,48.050 253.737,48.308 254.614 C 49.159 257.518,53.255 260.934,57.215 262.043 C 61.800 263.327,70.141 262.936,71.963 261.351 C 72.138 261.199,72.554 261.074,72.886 261.074 C 73.218 261.074,73.490 260.933,73.490 260.761 C 73.490 260.589,73.782 260.355,74.140 260.242 C 74.836 260.021,78.523 256.643,78.523 256.226 C 78.523 256.089,78.793 255.575,79.123 255.085 C 80.975 252.334,81.285 249.390,81.511 232.395 L 81.711 217.307 82.886 217.063 C 83.532 216.929,84.627 216.727,85.319 216.616 L 86.577 216.413 86.577 213.575 L 86.577 210.738 76.174 210.738 L 65.772 210.738 65.772 213.382 M135.305 213.496 L 135.403 216.275 136.745 216.572 C 137.483 216.735,138.654 217.005,139.346 217.172 L 140.604 217.476 140.604 236.411 C 140.604 258.002,140.937 255.879,137.490 256.276 C 135.312 256.528,135.246 256.630,135.240 259.815 L 135.235 262.416 145.638 262.416 L 156.040 262.416 156.040 259.927 C 156.040 256.681,155.904 256.376,154.449 256.376 C 153.798 256.376,152.682 256.201,151.968 255.987 L 150.671 255.598 150.671 248.437 L 150.671 241.275 156.356 241.275 C 159.784 241.275,162.123 241.408,162.248 241.611 C 162.362 241.795,162.749 241.946,163.107 241.946 C 163.465 241.946,163.758 242.097,163.758 242.282 C 163.758 242.466,163.916 242.617,164.108 242.617 C 165.890 242.617,167.075 245.704,167.474 251.385 C 168.107 260.390,170.250 262.416,179.138 262.416 L 181.544 262.416 181.544 259.799 C 181.544 257.089,181.247 256.376,180.122 256.376 C 178.082 256.376,177.280 254.536,177.052 249.329 C 176.839 244.473,175.361 241.020,172.936 239.714 C 172.318 239.381,171.812 239.029,171.812 238.932 C 171.812 238.764,170.667 238.232,169.385 237.804 C 168.493 237.506,169.007 236.711,170.752 235.692 C 175.996 232.629,178.387 225.317,175.835 220.145 C 175.696 219.862,175.377 219.196,175.127 218.664 C 174.459 217.246,172.228 214.823,171.019 214.204 C 170.440 213.907,169.891 213.568,169.799 213.451 C 169.706 213.333,168.951 212.958,168.121 212.618 C 167.290 212.278,166.309 211.877,165.940 211.726 C 164.422 211.105,161.962 210.978,148.896 210.851 L 135.207 210.717 135.305 213.496 M160.570 218.299 C 163.260 218.720,166.443 220.992,166.443 222.492 C 166.443 222.835,166.594 223.208,166.779 223.322 C 167.443 223.733,167.173 228.399,166.405 229.765 C 164.638 232.912,163.055 233.532,156.131 233.792 L 150.671 233.998 150.671 226.115 C 150.671 221.780,150.784 218.118,150.923 217.978 C 151.190 217.708,158.309 217.944,160.570 218.299 M200.671 223.827 C 196.870 224.185,192.435 226.590,190.523 229.330 C 190.124 229.902,189.698 230.445,189.577 230.537 C 189.063 230.929,186.913 235.883,186.913 236.676 C 186.913 237.154,186.762 237.638,186.577 237.752 C 186.375 237.876,186.242 240.160,186.242 243.476 C 186.242 246.931,186.367 248.993,186.577 248.993 C 186.762 248.993,186.913 249.328,186.913 249.737 C 186.913 254.117,192.870 260.627,198.154 262.021 C 202.566 263.186,212.419 262.762,213.279 261.371 C 213.380 261.207,213.831 261.074,214.282 261.074 C 214.732 261.074,215.101 260.939,215.101 260.775 C 215.101 260.610,215.450 260.388,215.878 260.280 C 217.576 259.854,218.420 258.632,217.824 257.462 C 217.661 257.141,217.380 256.502,217.198 256.040 C 216.169 253.423,215.472 252.792,214.581 253.670 C 212.635 255.587,204.253 256.330,201.237 254.852 C 199.411 253.957,196.980 251.049,196.980 249.760 C 196.980 249.412,196.848 248.984,196.688 248.809 C 196.124 248.194,195.968 246.731,196.425 246.352 C 196.724 246.104,200.496 245.953,207.915 245.894 L 218.960 245.805 219.059 241.611 C 219.155 237.514,218.482 232.813,217.732 232.350 C 217.577 232.254,217.448 231.920,217.445 231.608 C 217.436 230.300,213.687 226.539,211.242 225.383 C 207.852 223.781,205.246 223.397,200.671 223.827 M239.094 223.745 C 237.802 223.800,236.269 224.068,235.688 224.339 C 235.106 224.610,234.463 224.832,234.258 224.832 C 233.876 224.832,231.235 225.937,230.034 226.599 C 229.664 226.803,228.947 227.179,228.440 227.435 L 227.517 227.902 227.517 231.904 L 227.517 235.906 231.166 235.906 L 234.815 235.906 235.025 234.857 C 235.141 234.281,235.235 233.460,235.235 233.035 C 235.235 232.135,236.595 231.055,238.087 230.770 C 238.641 230.664,239.524 230.472,240.050 230.344 C 244.541 229.247,248.086 232.599,247.916 237.784 L 247.819 240.772 242.450 240.993 C 236.663 241.231,234.245 241.505,233.742 241.981 C 233.566 242.146,233.144 242.282,232.803 242.282 C 232.239 242.282,229.426 243.959,228.188 245.033 C 226.736 246.293,225.839 248.856,225.839 251.747 C 225.839 255.852,226.555 257.736,229.008 260.085 C 230.514 261.525,232.307 262.277,235.235 262.693 C 237.789 263.056,243.960 262.121,243.960 261.370 C 243.960 261.207,244.151 261.074,244.385 261.074 C 244.619 261.074,245.541 260.471,246.433 259.733 C 247.972 258.462,248.658 258.283,248.658 259.153 C 248.658 259.367,248.905 260.188,249.207 260.979 L 249.756 262.416 255.415 262.416 L 261.074 262.416 261.074 259.799 C 261.074 256.930,260.794 256.376,259.349 256.376 C 257.987 256.376,258.001 256.475,257.860 245.538 C 257.722 234.753,257.129 229.866,255.958 229.866 C 255.819 229.866,255.705 229.710,255.705 229.519 C 255.705 229.328,255.214 228.684,254.614 228.087 C 251.058 224.549,246.972 223.406,239.094 223.745 M312.081 223.834 C 309.537 224.125,307.537 225.105,305.286 227.162 C 303.046 229.210,302.845 229.169,302.552 226.601 C 302.212 223.630,302.701 223.800,294.775 223.902 L 287.752 223.993 287.653 226.421 C 287.527 229.520,287.873 230.201,289.568 230.201 C 290.277 230.201,291.405 230.430,292.073 230.709 L 293.289 231.217 293.289 243.289 L 293.289 255.360 292.073 255.868 C 291.405 256.147,290.453 256.376,289.959 256.376 C 288.536 256.376,288.255 256.940,288.255 259.799 L 288.255 262.416 297.832 262.416 L 307.409 262.416 307.312 259.480 L 307.215 256.544 306.094 256.436 C 305.478 256.377,304.497 256.062,303.913 255.736 L 302.852 255.144 302.764 244.719 L 302.675 234.294 304.237 232.919 C 305.096 232.162,306.071 231.544,306.403 231.544 C 306.736 231.544,307.101 231.393,307.215 231.208 C 307.511 230.729,311.275 230.793,312.169 231.292 C 315.622 233.222,315.772 233.813,315.772 245.499 L 315.772 255.346 315.017 255.755 C 314.602 255.980,313.733 256.252,313.087 256.359 L 311.913 256.553 311.816 259.485 L 311.719 262.416 320.805 262.416 L 329.892 262.416 329.795 259.480 L 329.698 256.544 328.356 256.357 C 327.617 256.255,326.674 255.985,326.258 255.758 L 325.503 255.346 325.503 245.031 L 325.503 234.717 326.540 233.459 C 330.442 228.725,337.130 230.401,338.226 236.387 C 338.631 238.598,338.723 254.668,338.334 255.208 C 337.942 255.752,336.297 256.376,335.255 256.376 C 334.056 256.376,333.893 256.802,333.893 259.927 L 333.893 262.416 343.469 262.416 L 353.046 262.416 352.949 259.480 L 352.852 256.544 351.342 256.360 C 348.158 255.974,348.324 256.484,348.306 247.052 C 348.270 228.787,345.660 223.765,336.205 223.775 C 331.157 223.780,329.408 224.658,325.572 229.111 C 324.685 230.141,324.399 230.069,323.574 228.607 C 321.409 224.776,317.612 223.199,312.081 223.834 M206.129 231.292 C 207.341 231.970,208.389 232.969,208.389 233.448 C 208.389 233.692,208.540 233.893,208.725 233.893 C 208.909 233.893,209.060 234.164,209.060 234.497 C 209.060 234.829,209.220 235.260,209.414 235.454 C 209.609 235.649,209.722 236.699,209.666 237.787 L 209.564 239.765 203.189 239.857 C 195.156 239.972,195.030 239.844,197.727 234.320 C 199.200 231.302,203.424 229.780,206.129 231.292 M247.987 249.009 C 247.987 252.096,247.921 252.446,247.200 253.166 C 241.645 258.722,232.554 255.421,235.941 249.077 C 237.232 246.658,239.595 245.723,244.547 245.673 L 247.987 245.638 247.987 249.009 " stroke="none" fill="#ffffff" fill-rule="evenodd"></path></g></svg>